<mxfile host="app.diagrams.net" modified="2024-05-29T16:11:21.979Z" agent="Mozilla/5.0 (Windows NT 10.0; Win64; x64) AppleWebKit/537.36 (KHTML, like Gecko) Chrome/125.0.0.0 Safari/537.36" etag="NFe-zxeEfmh8p6y1klxg" version="24.4.9" type="device">
  <diagram name="Page-1" id="ysGzBzFnsp5RrXu4vezk">
    <mxGraphModel dx="1034" dy="707" grid="0" gridSize="10" guides="1" tooltips="1" connect="1" arrows="1" fold="1" page="1" pageScale="1" pageWidth="1100" pageHeight="1700" math="0" shadow="0">
      <root>
        <mxCell id="0" />
        <mxCell id="1" parent="0" />
        <mxCell id="NYUAv16IeEiXAjsmqHAU-1" value="" style="ellipse;whiteSpace=wrap;html=1;aspect=fixed;" vertex="1" parent="1">
          <mxGeometry x="460" y="320" width="170" height="170" as="geometry" />
        </mxCell>
        <mxCell id="NYUAv16IeEiXAjsmqHAU-2" value="&lt;font style=&quot;font-size: 18px;&quot;&gt;N1&lt;/font&gt;" style="ellipse;whiteSpace=wrap;html=1;aspect=fixed;" vertex="1" parent="1">
          <mxGeometry x="570" y="310" width="60" height="60" as="geometry" />
        </mxCell>
        <mxCell id="NYUAv16IeEiXAjsmqHAU-7" value="Ring Manager" style="rounded=1;whiteSpace=wrap;html=1;" vertex="1" parent="1">
          <mxGeometry x="350" y="240" width="120" height="60" as="geometry" />
        </mxCell>
        <mxCell id="NYUAv16IeEiXAjsmqHAU-8" value="Handler&lt;div&gt;[n_nodes&amp;nbsp;→ 4]&lt;/div&gt;" style="rounded=1;whiteSpace=wrap;html=1;" vertex="1" parent="1">
          <mxGeometry x="350" y="110" width="120" height="60" as="geometry" />
        </mxCell>
        <mxCell id="NYUAv16IeEiXAjsmqHAU-9" value="" style="endArrow=classic;html=1;rounded=0;exitX=0.25;exitY=1;exitDx=0;exitDy=0;" edge="1" parent="1" source="NYUAv16IeEiXAjsmqHAU-8">
          <mxGeometry width="50" height="50" relative="1" as="geometry">
            <mxPoint x="400" y="390" as="sourcePoint" />
            <mxPoint x="380" y="210" as="targetPoint" />
          </mxGeometry>
        </mxCell>
        <mxCell id="NYUAv16IeEiXAjsmqHAU-10" value=":add_node 4" style="text;html=1;align=center;verticalAlign=middle;whiteSpace=wrap;rounded=0;" vertex="1" parent="1">
          <mxGeometry x="300" y="170" width="70" height="30" as="geometry" />
        </mxCell>
        <mxCell id="NYUAv16IeEiXAjsmqHAU-11" value="" style="endArrow=classic;html=1;rounded=0;entryX=0.5;entryY=0;entryDx=0;entryDy=0;" edge="1" parent="1" target="NYUAv16IeEiXAjsmqHAU-7">
          <mxGeometry width="50" height="50" relative="1" as="geometry">
            <mxPoint x="410" y="170" as="sourcePoint" />
            <mxPoint x="409.5" y="205" as="targetPoint" />
          </mxGeometry>
        </mxCell>
        <mxCell id="NYUAv16IeEiXAjsmqHAU-12" value=":lookup, 31" style="text;html=1;align=center;verticalAlign=middle;whiteSpace=wrap;rounded=0;" vertex="1" parent="1">
          <mxGeometry x="320" y="210" width="70" height="30" as="geometry" />
        </mxCell>
        <mxCell id="NYUAv16IeEiXAjsmqHAU-13" value="" style="endArrow=classic;html=1;rounded=0;exitX=0.75;exitY=0;exitDx=0;exitDy=0;entryX=0.75;entryY=1;entryDx=0;entryDy=0;" edge="1" parent="1" source="NYUAv16IeEiXAjsmqHAU-7" target="NYUAv16IeEiXAjsmqHAU-8">
          <mxGeometry width="50" height="50" relative="1" as="geometry">
            <mxPoint x="390" y="400" as="sourcePoint" />
            <mxPoint x="440" y="350" as="targetPoint" />
          </mxGeometry>
        </mxCell>
        <mxCell id="NYUAv16IeEiXAjsmqHAU-14" value=":node, N1" style="text;html=1;align=center;verticalAlign=middle;whiteSpace=wrap;rounded=0;" vertex="1" parent="1">
          <mxGeometry x="450" y="190" width="70" height="30" as="geometry" />
        </mxCell>
        <mxCell id="NYUAv16IeEiXAjsmqHAU-16" value="&lt;font style=&quot;font-size: 18px;&quot;&gt;N2&lt;/font&gt;" style="ellipse;whiteSpace=wrap;html=1;aspect=fixed;" vertex="1" parent="1">
          <mxGeometry x="580" y="430" width="60" height="60" as="geometry" />
        </mxCell>
        <mxCell id="NYUAv16IeEiXAjsmqHAU-17" value="&lt;font style=&quot;font-size: 18px;&quot;&gt;N3&lt;/font&gt;" style="ellipse;whiteSpace=wrap;html=1;aspect=fixed;" vertex="1" parent="1">
          <mxGeometry x="465" y="440" width="60" height="60" as="geometry" />
        </mxCell>
        <mxCell id="NYUAv16IeEiXAjsmqHAU-18" value="" style="endArrow=classic;html=1;rounded=0;exitX=0.5;exitY=1;exitDx=0;exitDy=0;" edge="1" parent="1" source="NYUAv16IeEiXAjsmqHAU-7">
          <mxGeometry width="50" height="50" relative="1" as="geometry">
            <mxPoint x="530" y="370" as="sourcePoint" />
            <mxPoint x="410" y="330" as="targetPoint" />
          </mxGeometry>
        </mxCell>
        <mxCell id="NYUAv16IeEiXAjsmqHAU-20" style="edgeStyle=orthogonalEdgeStyle;rounded=0;orthogonalLoop=1;jettySize=auto;html=1;entryX=0;entryY=0.5;entryDx=0;entryDy=0;" edge="1" parent="1" source="NYUAv16IeEiXAjsmqHAU-19" target="NYUAv16IeEiXAjsmqHAU-1">
          <mxGeometry relative="1" as="geometry">
            <Array as="points">
              <mxPoint x="410" y="405" />
            </Array>
          </mxGeometry>
        </mxCell>
        <mxCell id="NYUAv16IeEiXAjsmqHAU-19" value="hash(31) = 10" style="text;html=1;align=center;verticalAlign=middle;whiteSpace=wrap;rounded=0;" vertex="1" parent="1">
          <mxGeometry x="370" y="325" width="80" height="30" as="geometry" />
        </mxCell>
        <mxCell id="NYUAv16IeEiXAjsmqHAU-21" value="" style="ellipse;whiteSpace=wrap;html=1;aspect=fixed;" vertex="1" parent="1">
          <mxGeometry x="860" y="320" width="170" height="170" as="geometry" />
        </mxCell>
        <mxCell id="NYUAv16IeEiXAjsmqHAU-22" value="&lt;font style=&quot;font-size: 18px;&quot;&gt;N1&lt;/font&gt;" style="ellipse;whiteSpace=wrap;html=1;aspect=fixed;" vertex="1" parent="1">
          <mxGeometry x="970" y="310" width="60" height="60" as="geometry" />
        </mxCell>
        <mxCell id="NYUAv16IeEiXAjsmqHAU-23" value="Ring Manager" style="rounded=1;whiteSpace=wrap;html=1;" vertex="1" parent="1">
          <mxGeometry x="740" y="240" width="120" height="60" as="geometry" />
        </mxCell>
        <mxCell id="NYUAv16IeEiXAjsmqHAU-24" value="Handler&lt;div&gt;[n_nodes&amp;nbsp;→ 4]&lt;/div&gt;" style="rounded=1;whiteSpace=wrap;html=1;" vertex="1" parent="1">
          <mxGeometry x="740" y="110" width="120" height="60" as="geometry" />
        </mxCell>
        <mxCell id="NYUAv16IeEiXAjsmqHAU-25" value="" style="endArrow=classic;html=1;rounded=0;exitX=0.25;exitY=1;exitDx=0;exitDy=0;entryX=0.25;entryY=0;entryDx=0;entryDy=0;" edge="1" parent="1" source="NYUAv16IeEiXAjsmqHAU-24" target="NYUAv16IeEiXAjsmqHAU-23">
          <mxGeometry width="50" height="50" relative="1" as="geometry">
            <mxPoint x="790" y="390" as="sourcePoint" />
            <mxPoint x="770" y="210" as="targetPoint" />
          </mxGeometry>
        </mxCell>
        <mxCell id="NYUAv16IeEiXAjsmqHAU-26" value=":add_node 4" style="text;html=1;align=center;verticalAlign=middle;whiteSpace=wrap;rounded=0;" vertex="1" parent="1">
          <mxGeometry x="690" y="170" width="70" height="30" as="geometry" />
        </mxCell>
        <mxCell id="NYUAv16IeEiXAjsmqHAU-29" value="" style="endArrow=classic;html=1;rounded=0;exitX=0.75;exitY=0;exitDx=0;exitDy=0;entryX=0.75;entryY=1;entryDx=0;entryDy=0;" edge="1" parent="1" source="NYUAv16IeEiXAjsmqHAU-23" target="NYUAv16IeEiXAjsmqHAU-24">
          <mxGeometry width="50" height="50" relative="1" as="geometry">
            <mxPoint x="780" y="400" as="sourcePoint" />
            <mxPoint x="830" y="350" as="targetPoint" />
          </mxGeometry>
        </mxCell>
        <mxCell id="NYUAv16IeEiXAjsmqHAU-30" value=":ring_resized" style="text;html=1;align=center;verticalAlign=middle;whiteSpace=wrap;rounded=0;" vertex="1" parent="1">
          <mxGeometry x="840" y="190" width="70" height="30" as="geometry" />
        </mxCell>
        <mxCell id="NYUAv16IeEiXAjsmqHAU-31" value="&lt;font style=&quot;font-size: 18px;&quot;&gt;N2&lt;/font&gt;" style="ellipse;whiteSpace=wrap;html=1;aspect=fixed;" vertex="1" parent="1">
          <mxGeometry x="980" y="430" width="60" height="60" as="geometry" />
        </mxCell>
        <mxCell id="NYUAv16IeEiXAjsmqHAU-32" value="&lt;font style=&quot;font-size: 18px;&quot;&gt;N3&lt;/font&gt;" style="ellipse;whiteSpace=wrap;html=1;aspect=fixed;" vertex="1" parent="1">
          <mxGeometry x="865" y="440" width="60" height="60" as="geometry" />
        </mxCell>
        <mxCell id="NYUAv16IeEiXAjsmqHAU-33" value="" style="endArrow=classic;html=1;rounded=0;exitX=0.5;exitY=1;exitDx=0;exitDy=0;" edge="1" parent="1" source="NYUAv16IeEiXAjsmqHAU-23">
          <mxGeometry width="50" height="50" relative="1" as="geometry">
            <mxPoint x="920" y="370" as="sourcePoint" />
            <mxPoint x="800" y="330" as="targetPoint" />
          </mxGeometry>
        </mxCell>
        <mxCell id="NYUAv16IeEiXAjsmqHAU-37" style="edgeStyle=orthogonalEdgeStyle;rounded=0;orthogonalLoop=1;jettySize=auto;html=1;" edge="1" parent="1" source="NYUAv16IeEiXAjsmqHAU-35" target="NYUAv16IeEiXAjsmqHAU-36">
          <mxGeometry relative="1" as="geometry" />
        </mxCell>
        <mxCell id="NYUAv16IeEiXAjsmqHAU-35" value="hash(4) = 15" style="text;html=1;align=center;verticalAlign=middle;whiteSpace=wrap;rounded=0;" vertex="1" parent="1">
          <mxGeometry x="760" y="325" width="80" height="30" as="geometry" />
        </mxCell>
        <mxCell id="NYUAv16IeEiXAjsmqHAU-36" value="&lt;font style=&quot;font-size: 18px;&quot;&gt;N4&lt;/font&gt;" style="ellipse;whiteSpace=wrap;html=1;aspect=fixed;" vertex="1" parent="1">
          <mxGeometry x="890" y="290" width="60" height="60" as="geometry" />
        </mxCell>
        <mxCell id="NYUAv16IeEiXAjsmqHAU-38" value="&lt;span style=&quot;font-size: 17px;&quot;&gt;Asynchronous Manager&lt;/span&gt;&lt;div&gt;&lt;span style=&quot;font-size: 17px;&quot;&gt;(Violates&lt;/span&gt;&lt;span style=&quot;background-color: initial; font-size: 17px;&quot;&gt;&amp;nbsp;ϕ&lt;/span&gt;&lt;sub style=&quot;background-color: initial;&quot;&gt;4&lt;/sub&gt;&lt;span style=&quot;font-size: 17px; background-color: initial;&quot;&gt;)&lt;/span&gt;&lt;/div&gt;" style="text;html=1;align=center;verticalAlign=middle;whiteSpace=wrap;rounded=0;" vertex="1" parent="1">
          <mxGeometry x="300" y="60" width="210" height="40" as="geometry" />
        </mxCell>
        <mxCell id="NYUAv16IeEiXAjsmqHAU-39" value="&lt;span style=&quot;font-size: 17px;&quot;&gt;Synchronous Manager&lt;/span&gt;&lt;div&gt;&lt;span style=&quot;font-size: 17px;&quot;&gt;(Accepts&lt;/span&gt;&lt;span style=&quot;background-color: initial; font-size: 17px;&quot;&gt;&amp;nbsp;ϕ&lt;/span&gt;&lt;sub style=&quot;background-color: initial;&quot;&gt;4&lt;/sub&gt;&lt;span style=&quot;font-size: 17px; background-color: initial;&quot;&gt;)&lt;/span&gt;&lt;/div&gt;" style="text;html=1;align=center;verticalAlign=middle;whiteSpace=wrap;rounded=0;" vertex="1" parent="1">
          <mxGeometry x="690" y="60" width="210" height="40" as="geometry" />
        </mxCell>
      </root>
    </mxGraphModel>
  </diagram>
</mxfile>
